<?xml version="1.0" encoding="UTF-8"?><svg xmlns="http://www.w3.org/2000/svg" xmlns:xlink="http://www.w3.org/1999/xlink" fill-opacity="1" color-rendering="auto" color-interpolation="auto" text-rendering="auto" stroke="black" stroke-linecap="square" width="1356" stroke-miterlimit="10" shape-rendering="auto" stroke-opacity="1" fill="black" stroke-dasharray="none" font-weight="normal" stroke-width="1" height="449" font-family="'Dialog'" font-style="normal" stroke-linejoin="miter" font-size="12px" stroke-dashoffset="0" image-rendering="auto">
  <!--Generated by ySVG 2.5-->
  <defs id="genericDefs"/>
  <g>
    <defs id="defs1">
      <clipPath clipPathUnits="userSpaceOnUse" id="clipPath1">
        <path d="M0 0 L1356 0 L1356 449 L0 449 L0 0 Z"/>
      </clipPath>
      <clipPath clipPathUnits="userSpaceOnUse" id="clipPath2">
        <path d="M-558 126 L798 126 L798 575 L-558 575 L-558 126 Z"/>
      </clipPath>
    </defs>
    <g fill="white" text-rendering="geometricPrecision" shape-rendering="geometricPrecision" transform="translate(558,-126)" stroke="white">
      <rect x="-558" width="1356" height="449" y="126" clip-path="url(#clipPath2)" stroke="none"/>
    </g>
    <g stroke-linecap="butt" transform="matrix(1,0,0,1,558,-126)" fill="rgb(255,153,0)" text-rendering="geometricPrecision" shape-rendering="geometricPrecision" stroke-dasharray="6,2" stroke="rgb(255,153,0)" stroke-miterlimit="1.45">
      <rect x="-543" y="141.5" clip-path="url(#clipPath2)" fill="none" width="500.7539" rx="4" ry="4" height="418"/>
    </g>
    <g stroke-linecap="butt" transform="matrix(1,0,0,1,558,-126)" text-rendering="geometricPrecision" font-family="'Helvetica Neue'" shape-rendering="geometricPrecision" font-style="italic" font-weight="bold" stroke-miterlimit="1.45">
      <text x="-537" xml:space="preserve" y="159.2" clip-path="url(#clipPath2)" stroke="none">Internet</text>
      <rect x="417" y="141.5" clip-path="url(#clipPath2)" fill="none" width="366" rx="4" ry="4" height="418"/>
      <text x="423" xml:space="preserve" y="159.2" clip-path="url(#clipPath2)" stroke="none">Remote Network: 192.168.1.0/24</text>
      <rect x="-10.8155" y="141.5" clip-path="url(#clipPath2)" fill="none" width="389.8155" rx="4" ry="4" height="418"/>
      <text x="-4.8155" xml:space="preserve" y="159.2" clip-path="url(#clipPath2)" stroke="none">Data Center Network: 192.168.178.0/24</text>
    </g>
    <g fill="rgb(255,102,102)" text-rendering="geometricPrecision" shape-rendering="geometricPrecision" transform="matrix(1,0,0,1,558,-126)" stroke="rgb(255,102,102)">
      <rect x="348" y="415.5" clip-path="url(#clipPath2)" width="107" rx="4" ry="4" height="45" stroke="none"/>
    </g>
    <g text-rendering="geometricPrecision" stroke-miterlimit="1.45" shape-rendering="geometricPrecision" transform="matrix(1,0,0,1,558,-126)" stroke-linecap="butt">
      <rect x="348" y="415.5" clip-path="url(#clipPath2)" fill="none" width="107" rx="4" ry="4" height="45"/>
      <text x="381.07" xml:space="preserve" y="442.434" clip-path="url(#clipPath2)" font-family="'Helvetica Neue'" stroke="none">Firewall</text>
    </g>
    <g fill="rgb(255,204,255)" text-rendering="geometricPrecision" shape-rendering="geometricPrecision" transform="matrix(1,0,0,1,558,-126)" stroke="rgb(255,204,255)">
      <rect x="652" y="415.5" clip-path="url(#clipPath2)" width="107" rx="4" ry="4" height="45" stroke="none"/>
    </g>
    <g text-rendering="geometricPrecision" stroke-miterlimit="1.45" shape-rendering="geometricPrecision" transform="matrix(1,0,0,1,558,-126)" stroke-linecap="butt">
      <rect x="652" y="415.5" clip-path="url(#clipPath2)" fill="none" width="107" rx="4" ry="4" height="45"/>
      <text x="686.618" xml:space="preserve" y="442.434" clip-path="url(#clipPath2)" font-family="'Helvetica Neue'" stroke="none">va-kiwi</text>
    </g>
    <g fill="rgb(255,102,102)" text-rendering="geometricPrecision" shape-rendering="geometricPrecision" transform="matrix(1,0,0,1,558,-126)" stroke="rgb(255,102,102)">
      <rect x="-75" y="417" clip-path="url(#clipPath2)" width="107" rx="4" ry="4" height="45" stroke="none"/>
    </g>
    <g text-rendering="geometricPrecision" stroke-miterlimit="1.45" shape-rendering="geometricPrecision" transform="matrix(1,0,0,1,558,-126)" stroke-linecap="butt">
      <rect x="-75" y="417" clip-path="url(#clipPath2)" fill="none" width="107" rx="4" ry="4" height="45"/>
      <text x="-39.5" xml:space="preserve" y="443.934" clip-path="url(#clipPath2)" font-family="'Helvetica Neue'" stroke="none">Router</text>
      <text x="667.136" xml:space="preserve" y="456.934" clip-path="url(#clipPath2)" font-family="'Helvetica Neue'" stroke="none">192.168.1.103</text>
      <text x="424.808" xml:space="preserve" y="480.434" clip-path="url(#clipPath2)" font-family="'Helvetica Neue'" stroke="none">192.168.1.1</text>
      <text x="289.8" xml:space="preserve" y="480.434" clip-path="url(#clipPath2)" font-family="'Helvetica Neue'" stroke="none">192.168.178.68</text>
      <text x="36.136" xml:space="preserve" y="458.434" clip-path="url(#clipPath2)" font-family="'Helvetica Neue'" stroke="none">192.168.178.1</text>
    </g>
    <g fill="rgb(0,204,255)" text-rendering="geometricPrecision" shape-rendering="geometricPrecision" transform="matrix(1,0,0,1,558,-126)" stroke="rgb(0,204,255)">
      <rect x="15" y="492" clip-path="url(#clipPath2)" width="107" rx="4" ry="4" height="45" stroke="none"/>
    </g>
    <g text-rendering="geometricPrecision" stroke-miterlimit="1.45" shape-rendering="geometricPrecision" transform="matrix(1,0,0,1,558,-126)" stroke-linecap="butt">
      <rect x="15" y="492" clip-path="url(#clipPath2)" fill="none" width="107" rx="4" ry="4" height="45"/>
      <text x="53.062" xml:space="preserve" y="518.934" clip-path="url(#clipPath2)" font-family="'Helvetica Neue'" stroke="none">Proxy</text>
      <text x="26.8" xml:space="preserve" y="533.434" clip-path="url(#clipPath2)" font-family="'Helvetica Neue'" stroke="none">192.168.178.69</text>
    </g>
    <g fill="rgb(204,255,204)" text-rendering="geometricPrecision" shape-rendering="geometricPrecision" transform="matrix(1,0,0,1,558,-126)" stroke="rgb(204,255,204)">
      <rect x="15" y="342" clip-path="url(#clipPath2)" width="107" rx="4" ry="4" height="45" stroke="none"/>
    </g>
    <g text-rendering="geometricPrecision" stroke-miterlimit="1.45" shape-rendering="geometricPrecision" transform="matrix(1,0,0,1,558,-126)" stroke-linecap="butt">
      <rect x="15" y="342" clip-path="url(#clipPath2)" fill="none" width="107" rx="4" ry="4" height="45"/>
      <text x="48.73" xml:space="preserve" y="368.934" clip-path="url(#clipPath2)" font-family="'Helvetica Neue'" stroke="none">horizon</text>
      <text x="26.8" xml:space="preserve" y="383.434" clip-path="url(#clipPath2)" font-family="'Helvetica Neue'" stroke="none">192.168.178.74</text>
    </g>
    <g fill="rgb(204,255,204)" text-rendering="geometricPrecision" shape-rendering="geometricPrecision" transform="matrix(1,0,0,1,558,-126)" stroke="rgb(204,255,204)">
      <rect x="15" y="272" clip-path="url(#clipPath2)" width="107" rx="4" ry="4" height="45" stroke="none"/>
    </g>
    <g text-rendering="geometricPrecision" stroke-miterlimit="1.45" shape-rendering="geometricPrecision" transform="matrix(1,0,0,1,558,-126)" stroke-linecap="butt">
      <rect x="15" y="272" clip-path="url(#clipPath2)" fill="none" width="107" rx="4" ry="4" height="45"/>
      <text x="51.28" xml:space="preserve" y="298.934" clip-path="url(#clipPath2)" font-family="'Helvetica Neue'" stroke="none">elastic</text>
      <text x="26.8" xml:space="preserve" y="313.434" clip-path="url(#clipPath2)" font-family="'Helvetica Neue'" stroke="none">192.168.178.77</text>
    </g>
    <g fill="rgb(204,255,204)" text-rendering="geometricPrecision" shape-rendering="geometricPrecision" transform="matrix(1,0,0,1,558,-126)" stroke="rgb(204,255,204)">
      <rect x="15" y="202" clip-path="url(#clipPath2)" width="107" rx="4" ry="4" height="45" stroke="none"/>
    </g>
    <g text-rendering="geometricPrecision" stroke-miterlimit="1.45" shape-rendering="geometricPrecision" transform="matrix(1,0,0,1,558,-126)" stroke-linecap="butt">
      <rect x="15" y="202" clip-path="url(#clipPath2)" fill="none" width="107" rx="4" ry="4" height="45"/>
      <text x="54.052" xml:space="preserve" y="228.934" clip-path="url(#clipPath2)" font-family="'Helvetica Neue'" stroke="none">kafka</text>
      <text x="26.8" xml:space="preserve" y="243.434" clip-path="url(#clipPath2)" font-family="'Helvetica Neue'" stroke="none">192.168.178.76</text>
      <text x="-168.294" xml:space="preserve" y="451.444" clip-path="url(#clipPath2)" font-family="'Helvetica Neue'" stroke="none">public dynamic</text>
      <text x="-145.95" xml:space="preserve" y="465.424" clip-path="url(#clipPath2)" font-family="'Helvetica Neue'" stroke="none">ip4/ip6</text>
    </g>
    <g fill="silver" text-rendering="geometricPrecision" shape-rendering="geometricPrecision" transform="matrix(1,0,0,1,558,-126)" stroke="silver">
      <rect x="199" y="430" clip-path="url(#clipPath2)" width="107" rx="4" ry="4" height="16" stroke="none"/>
    </g>
    <g text-rendering="geometricPrecision" stroke-miterlimit="1.45" shape-rendering="geometricPrecision" transform="matrix(1,0,0,1,558,-126)" stroke-linecap="butt">
      <rect x="199" y="430" clip-path="url(#clipPath2)" fill="none" width="107" rx="4" ry="4" height="16"/>
      <text x="235.172" xml:space="preserve" y="442.434" clip-path="url(#clipPath2)" font-family="'Helvetica Neue'" stroke="none">switch</text>
    </g>
    <g fill="silver" text-rendering="geometricPrecision" shape-rendering="geometricPrecision" transform="matrix(1,0,0,1,558,-126)" stroke="silver">
      <rect x="503" y="430" clip-path="url(#clipPath2)" width="107" rx="4" ry="4" height="16" stroke="none"/>
    </g>
    <g text-rendering="geometricPrecision" stroke-miterlimit="1.45" shape-rendering="geometricPrecision" transform="matrix(1,0,0,1,558,-126)" stroke-linecap="butt">
      <rect x="503" y="430" clip-path="url(#clipPath2)" fill="none" width="107" rx="4" ry="4" height="16"/>
      <text x="539.172" xml:space="preserve" y="442.434" clip-path="url(#clipPath2)" font-family="'Helvetica Neue'" stroke="none">switch</text>
    </g>
    <g fill="silver" text-rendering="geometricPrecision" shape-rendering="geometricPrecision" transform="matrix(1,0,0,1,558,-126)" stroke="silver">
      <rect x="-287" y="417" clip-path="url(#clipPath2)" width="107" rx="4" ry="4" height="45" stroke="none"/>
    </g>
    <g text-rendering="geometricPrecision" stroke-miterlimit="1.45" shape-rendering="geometricPrecision" transform="matrix(1,0,0,1,558,-126)" stroke-linecap="butt">
      <rect x="-287" y="417" clip-path="url(#clipPath2)" fill="none" width="107" rx="4" ry="4" height="45"/>
      <text x="-242.83" xml:space="preserve" y="443.934" clip-path="url(#clipPath2)" font-family="'Helvetica Neue'" stroke="none">ISP</text>
    </g>
    <g fill="silver" text-rendering="geometricPrecision" shape-rendering="geometricPrecision" transform="matrix(1,0,0,1,558,-126)" stroke="silver">
      <rect x="-498" y="277" clip-path="url(#clipPath2)" width="107" rx="4" ry="4" height="45" stroke="none"/>
    </g>
    <g text-rendering="geometricPrecision" stroke-miterlimit="1.45" shape-rendering="geometricPrecision" transform="matrix(1,0,0,1,558,-126)" stroke-linecap="butt">
      <rect x="-498" y="277" clip-path="url(#clipPath2)" fill="none" width="107" rx="4" ry="4" height="45"/>
      <text x="-480.398" xml:space="preserve" y="303.934" clip-path="url(#clipPath2)" font-family="'Helvetica Neue'" stroke="none">Ubuntu Store</text>
    </g>
    <g fill="silver" text-rendering="geometricPrecision" shape-rendering="geometricPrecision" transform="matrix(1,0,0,1,558,-126)" stroke="silver">
      <rect x="-498" y="347" clip-path="url(#clipPath2)" width="107" rx="4" ry="4" height="45" stroke="none"/>
    </g>
    <g text-rendering="geometricPrecision" stroke-miterlimit="1.45" shape-rendering="geometricPrecision" transform="matrix(1,0,0,1,558,-126)" stroke-linecap="butt">
      <rect x="-498" y="347" clip-path="url(#clipPath2)" fill="none" width="107" rx="4" ry="4" height="45"/>
      <text x="-469.934" xml:space="preserve" y="373.934" clip-path="url(#clipPath2)" font-family="'Helvetica Neue'" stroke="none">Azure IoT</text>
    </g>
    <g fill="silver" text-rendering="geometricPrecision" shape-rendering="geometricPrecision" transform="matrix(1,0,0,1,558,-126)" stroke="silver">
      <rect x="-498" y="417" clip-path="url(#clipPath2)" width="107" rx="4" ry="4" height="45" stroke="none"/>
    </g>
    <g text-rendering="geometricPrecision" stroke-miterlimit="1.45" shape-rendering="geometricPrecision" transform="matrix(1,0,0,1,558,-126)" stroke-linecap="butt">
      <rect x="-498" y="417" clip-path="url(#clipPath2)" fill="none" width="107" rx="4" ry="4" height="45"/>
      <text x="-476.618" xml:space="preserve" y="443.934" clip-path="url(#clipPath2)" font-family="'Helvetica Neue'" stroke="none">Docker Hub</text>
    </g>
    <g fill="silver" text-rendering="geometricPrecision" shape-rendering="geometricPrecision" transform="matrix(1,0,0,1,558,-126)" stroke="silver">
      <rect x="-498" y="487" clip-path="url(#clipPath2)" width="107" rx="4" ry="4" height="45" stroke="none"/>
    </g>
    <g text-rendering="geometricPrecision" stroke-miterlimit="1.45" shape-rendering="geometricPrecision" transform="matrix(1,0,0,1,558,-126)" stroke-linecap="butt">
      <rect x="-498" y="487" clip-path="url(#clipPath2)" fill="none" width="107" rx="4" ry="4" height="45"/>
      <text x="-477.62" xml:space="preserve" y="513.934" clip-path="url(#clipPath2)" font-family="'Helvetica Neue'" stroke="none">Ubuntu NTP</text>
    </g>
    <g fill="silver" text-rendering="geometricPrecision" shape-rendering="geometricPrecision" transform="matrix(1,0,0,1,558,-126)" stroke="silver">
      <rect x="-498" y="207" clip-path="url(#clipPath2)" width="107" rx="4" ry="4" height="45" stroke="none"/>
    </g>
    <g text-rendering="geometricPrecision" stroke-miterlimit="1.45" shape-rendering="geometricPrecision" transform="matrix(1,0,0,1,558,-126)" stroke-linecap="butt">
      <rect x="-498" y="207" clip-path="url(#clipPath2)" fill="none" width="107" rx="4" ry="4" height="45"/>
      <text x="-482.96" xml:space="preserve" y="233.934" clip-path="url(#clipPath2)" font-family="'Helvetica Neue'" stroke="none">Ubuntu Snaps</text>
      <path fill="none" d="M35.9866 439.1089 L198.9741 438.0003" clip-path="url(#clipPath2)"/>
      <path d="M27.9868 439.1634 C27.9718 436.9543 29.7504 435.1513 31.9595 435.1363 C34.1686 435.1212 35.9716 436.8999 35.9866 439.1089 C36.0016 441.318 34.223 443.121 32.0139 443.1361 C29.8048 443.1511 28.0018 441.3725 27.9868 439.1634 Z" clip-path="url(#clipPath2)" stroke="none"/>
      <path fill="none" d="M125.9764 513.9775 L128.4225 513.6573 L134.117 511.2744 L139.1813 507.5687 L143.7283 502.7578 L151.7218 490.6904 L159 476.8125 L166.4657 462.8643 L175.0217 450.5859 L179.9906 445.6168 L185.5705 441.7178 L191.8743 439.1063 L198.987 438.0043" clip-path="url(#clipPath2)"/>
      <path d="M118.0441 515.0159 C117.7574 512.8254 119.3006 510.8173 121.4911 510.5305 C123.6815 510.2438 125.6897 511.7871 125.9764 513.9775 C126.2631 516.168 124.7199 518.1761 122.5294 518.4629 C120.339 518.7496 118.3308 517.2063 118.0441 515.0159 Z" clip-path="url(#clipPath2)" stroke="none"/>
      <path fill="none" d="M125.9765 365.022 L128.4225 365.3419 L134.117 367.7197 L139.1813 371.4115 L143.7283 376.1953 L151.7218 388.1514 L159 401.8125 L166.4657 415.4033 L175.0217 427.1484 L179.9906 431.774 L185.5705 435.2725 L191.8743 437.4218 L198.987 437.9977" clip-path="url(#clipPath2)"/>
      <path d="M118.044 363.9846 C118.3305 361.7941 120.3385 360.2506 122.529 360.5371 C124.7194 360.8235 126.263 362.8315 125.9765 365.022 C125.69 367.2125 123.682 368.756 121.4915 368.4695 C119.3011 368.183 117.7576 366.1751 118.044 363.9846 Z" clip-path="url(#clipPath2)" stroke="none"/>
      <path fill="none" d="M125.8882 295.4871 L128.4225 296.1281 L134.117 300.7275 L139.1813 307.8715 L143.7283 317.1328 L151.7218 340.2998 L159 366.8125 L166.4657 393.2549 L175.0217 416.2109 L179.9906 425.3141 L185.5705 432.2646 L191.8743 436.6356 L198.987 437.9947" clip-path="url(#clipPath2)"/>
      <path d="M118.1323 293.5256 C118.674 291.3839 120.8493 290.0868 122.991 290.6284 C125.1327 291.1701 126.4298 293.3454 125.8882 295.4871 C125.3465 297.6288 123.1712 298.9259 121.0295 298.3842 C118.8878 297.8426 117.5907 295.6673 118.1323 293.5256 Z" clip-path="url(#clipPath2)" stroke="none"/>
      <path fill="none" d="M125.7975 225.4397 L125.8958 225.4579 L128.4225 226.9142 L134.117 233.7354 L139.1813 244.3314 L143.7283 258.0703 L151.7218 292.4482 L159 331.8125 L166.4657 371.1064 L175.0217 405.2734 L179.9906 418.8541 L185.5705 429.2568 L191.8743 435.8495 L195.333 437.5195 L198.9861 437.9962" clip-path="url(#clipPath2)"/>
      <path d="M118.0307 223.5221 C118.5602 221.3774 120.7282 220.068 122.8729 220.5975 C125.0176 221.127 126.327 223.295 125.7975 225.4397 C125.268 227.5844 123.1001 228.8938 120.9553 228.3643 C118.8106 227.8348 117.5012 225.6668 118.0307 223.5221 Z" clip-path="url(#clipPath2)" stroke="none"/>
      <path fill="none" d="M343.9738 438 L306.0261 438" clip-path="url(#clipPath2)"/>
      <path d="M351.9738 438 C351.9738 440.2091 350.183 442 347.9738 442 C345.7647 442 343.9738 440.2091 343.9738 438 C343.9738 435.7909 345.7647 434 347.9738 434 C350.183 434 351.9738 435.7909 351.9738 438 Z" clip-path="url(#clipPath2)" stroke="none"/>
      <path fill="none" d="M458.9837 438 L502.968 438" clip-path="url(#clipPath2)"/>
      <path d="M450.9837 438 C450.9837 435.7909 452.7745 434 454.9837 434 C457.1928 434 458.9837 435.7909 458.9837 438 C458.9837 440.2091 457.1928 442 454.9837 442 C452.7745 442 450.9837 440.2091 450.9837 438 Z" clip-path="url(#clipPath2)" stroke="none"/>
      <path fill="none" d="M647.9895 438 L609.9797 438" clip-path="url(#clipPath2)"/>
      <path d="M655.9895 438 C655.9895 440.2091 654.1987 442 651.9895 442 C649.7803 442 647.9895 440.2091 647.9895 438 C647.9895 435.7909 649.7803 434 651.9895 434 C654.1987 434 655.9895 435.7909 655.9895 438 Z" clip-path="url(#clipPath2)" stroke="none"/>
      <path fill="none" stroke-dasharray="6,2" d="M-175.9762 439.5 L-79.0089 439.5" clip-path="url(#clipPath2)"/>
      <path stroke-dasharray="6,2" d="M-183.9762 439.5 C-183.9762 437.2909 -182.1853 435.5 -179.9762 435.5 C-177.7671 435.5 -175.9762 437.2909 -175.9762 439.5 C-175.9762 441.7091 -177.7671 443.5 -179.9762 443.5 C-182.1853 443.5 -183.9762 441.7091 -183.9762 439.5 Z" clip-path="url(#clipPath2)" stroke="none"/>
      <path stroke-dasharray="6,2" d="M-71.0089 439.5 C-71.0089 441.7091 -72.7998 443.5 -75.0089 443.5 C-77.2181 443.5 -79.0089 441.7091 -79.0089 439.5 C-79.0089 437.2909 -77.2181 435.5 -75.0089 435.5 C-72.7998 435.5 -71.0089 437.2909 -71.0089 439.5 Z" clip-path="url(#clipPath2)" stroke="none"/>
      <path fill="none" stroke-dasharray="6,2" d="M-390.9674 299.5061 L-378.858 301.0723 L-368.1662 305.5156 L-358.7872 312.4199 L-350.5685 321.375 L-343.3579 331.9707 L-337.0028 343.7969 L-326.25 369.5 L-317.0909 395.2031 L-308.3065 417.625 L-303.6737 426.5801 L-298.6776 433.4844 L-293.1655 437.9277 L-287.0334 439.4877" clip-path="url(#clipPath2)"/>
      <path fill="none" stroke-dasharray="6,2" d="M-390.9674 369.5031 L-378.858 370.2861 L-368.1662 372.5078 L-358.7872 375.96 L-350.5685 380.4375 L-337.0028 391.6484 L-326.25 404.5 L-317.0909 417.3516 L-308.3065 428.5625 L-298.6776 436.4922 L-293.1655 438.7139 L-287.0334 439.4939" clip-path="url(#clipPath2)"/>
      <path fill="none" stroke-dasharray="6,2" d="M-391.0031 439.5 L-286.988 439.5" clip-path="url(#clipPath2)"/>
      <path fill="none" stroke-dasharray="6,2" d="M-390.9674 509.4969 L-378.858 508.7139 L-368.1662 506.4922 L-358.7872 503.04 L-350.5685 498.5625 L-337.0028 487.3516 L-326.25 474.5 L-317.0909 461.6484 L-308.3065 450.4375 L-298.6776 442.5078 L-293.1655 440.2861 L-287.0334 439.5061" clip-path="url(#clipPath2)"/>
      <path fill="none" stroke-dasharray="6,2" d="M-390.9886 229.5023 L-384.2897 230.1024 L-377.9791 231.8584 L-366.5256 238.5234 L-356.502 248.8799 L-347.756 262.3125 L-340.1353 278.2061 L-333.4872 295.9453 L-322.5 334.5 L-305.494 406.6875 L-301.3886 420.1201 L-297.0369 430.4766 L-292.2866 437.1416 L-289.7142 438.8976 L-287.0277 439.4906" clip-path="url(#clipPath2)"/>
    </g>
  </g>
</svg>
