<?xml version="1.0" encoding="UTF-8"?><svg xmlns="http://www.w3.org/2000/svg" xmlns:xlink="http://www.w3.org/1999/xlink" fill-opacity="1" color-rendering="auto" color-interpolation="auto" text-rendering="auto" stroke="black" stroke-linecap="square" width="1356" stroke-miterlimit="10" shape-rendering="auto" stroke-opacity="1" fill="black" stroke-dasharray="none" font-weight="normal" stroke-width="1" height="449" font-family="'Dialog'" font-style="normal" stroke-linejoin="miter" font-size="12px" stroke-dashoffset="0" image-rendering="auto">
  <!--Generated by ySVG 2.5-->
  <defs id="genericDefs"/>
  <g>
    <defs id="defs1">
      <clipPath clipPathUnits="userSpaceOnUse" id="clipPath1">
        <path d="M0 0 L1356 0 L1356 449 L0 449 L0 0 Z"/>
      </clipPath>
      <clipPath clipPathUnits="userSpaceOnUse" id="clipPath2">
        <path d="M-558 126 L798 126 L798 575 L-558 575 L-558 126 Z"/>
      </clipPath>
    </defs>
    <g fill="white" text-rendering="geometricPrecision" shape-rendering="geometricPrecision" transform="translate(558,-126)" stroke="white">
      <rect x="-558" width="1356" height="449" y="126" clip-path="url(#clipPath2)" stroke="none"/>
    </g>
    <g stroke-linecap="butt" transform="matrix(1,0,0,1,558,-126)" fill="rgb(255,153,0)" text-rendering="geometricPrecision" shape-rendering="geometricPrecision" stroke-dasharray="6,2" stroke="rgb(255,153,0)" stroke-miterlimit="1.45">
      <rect x="-543" y="141.5" clip-path="url(#clipPath2)" fill="none" width="505" rx="4" ry="4" height="418"/>
    </g>
    <g stroke-linecap="butt" transform="matrix(1,0,0,1,558,-126)" text-rendering="geometricPrecision" font-family="'Helvetica Neue'" shape-rendering="geometricPrecision" font-style="italic" font-weight="bold" stroke-miterlimit="1.45">
      <text x="-537" xml:space="preserve" y="159.2" clip-path="url(#clipPath2)" stroke="none">Internet</text>
      <rect x="417" y="141.5" clip-path="url(#clipPath2)" fill="none" width="366" rx="4" ry="4" height="418"/>
      <text x="423" xml:space="preserve" y="159.2" clip-path="url(#clipPath2)" stroke="none">Remote Network: 192.168.1.0/24</text>
      <rect x="-14" y="141.5" clip-path="url(#clipPath2)" fill="none" width="393" rx="4" ry="4" height="418"/>
      <text x="-8" xml:space="preserve" y="159.2" clip-path="url(#clipPath2)" stroke="none">Data Center Network: 192.168.178.0/24</text>
    </g>
    <g fill="rgb(255,102,102)" text-rendering="geometricPrecision" shape-rendering="geometricPrecision" transform="matrix(1,0,0,1,558,-126)" stroke="rgb(255,102,102)">
      <rect x="348" y="415.5" clip-path="url(#clipPath2)" width="107" rx="4" ry="4" height="45" stroke="none"/>
    </g>
    <g text-rendering="geometricPrecision" stroke-miterlimit="1.45" shape-rendering="geometricPrecision" transform="matrix(1,0,0,1,558,-126)" stroke-linecap="butt">
      <rect x="348" y="415.5" clip-path="url(#clipPath2)" fill="none" width="107" rx="4" ry="4" height="45"/>
      <text x="381.07" xml:space="preserve" y="442.434" clip-path="url(#clipPath2)" font-family="'Helvetica Neue'" stroke="none">Firewall</text>
    </g>
    <g fill="rgb(255,204,255)" text-rendering="geometricPrecision" shape-rendering="geometricPrecision" transform="matrix(1,0,0,1,558,-126)" stroke="rgb(255,204,255)">
      <rect x="652" y="415.5" clip-path="url(#clipPath2)" width="107" rx="4" ry="4" height="45" stroke="none"/>
    </g>
    <g text-rendering="geometricPrecision" stroke-miterlimit="1.45" shape-rendering="geometricPrecision" transform="matrix(1,0,0,1,558,-126)" stroke-linecap="butt">
      <rect x="652" y="415.5" clip-path="url(#clipPath2)" fill="none" width="107" rx="4" ry="4" height="45"/>
      <text x="686.618" xml:space="preserve" y="442.434" clip-path="url(#clipPath2)" font-family="'Helvetica Neue'" stroke="none">va-kiwi</text>
    </g>
    <g fill="rgb(255,102,102)" text-rendering="geometricPrecision" shape-rendering="geometricPrecision" transform="matrix(1,0,0,1,558,-126)" stroke="rgb(255,102,102)">
      <rect x="-75" y="417" clip-path="url(#clipPath2)" width="107" rx="4" ry="4" height="45" stroke="none"/>
    </g>
    <g text-rendering="geometricPrecision" stroke-miterlimit="1.45" shape-rendering="geometricPrecision" transform="matrix(1,0,0,1,558,-126)" stroke-linecap="butt">
      <rect x="-75" y="417" clip-path="url(#clipPath2)" fill="none" width="107" rx="4" ry="4" height="45"/>
      <text x="-39.5" xml:space="preserve" y="443.934" clip-path="url(#clipPath2)" font-family="'Helvetica Neue'" stroke="none">Router</text>
      <text x="667.136" xml:space="preserve" y="456.934" clip-path="url(#clipPath2)" font-family="'Helvetica Neue'" stroke="none">192.168.1.103</text>
      <text x="424.808" xml:space="preserve" y="480.434" clip-path="url(#clipPath2)" font-family="'Helvetica Neue'" stroke="none">192.168.1.1</text>
      <text x="289.8" xml:space="preserve" y="480.434" clip-path="url(#clipPath2)" font-family="'Helvetica Neue'" stroke="none">192.168.178.68</text>
      <text x="36.136" xml:space="preserve" y="458.434" clip-path="url(#clipPath2)" font-family="'Helvetica Neue'" stroke="none">192.168.178.1</text>
    </g>
    <g fill="rgb(0,204,255)" text-rendering="geometricPrecision" shape-rendering="geometricPrecision" transform="matrix(1,0,0,1,558,-126)" stroke="rgb(0,204,255)">
      <rect x="6" y="492" clip-path="url(#clipPath2)" width="107" rx="4" ry="4" height="45" stroke="none"/>
    </g>
    <g text-rendering="geometricPrecision" stroke-miterlimit="1.45" shape-rendering="geometricPrecision" transform="matrix(1,0,0,1,558,-126)" stroke-linecap="butt">
      <rect x="6" y="492" clip-path="url(#clipPath2)" fill="none" width="107" rx="4" ry="4" height="45"/>
      <text x="44.062" xml:space="preserve" y="518.934" clip-path="url(#clipPath2)" font-family="'Helvetica Neue'" stroke="none">Proxy</text>
      <text x="17.8" xml:space="preserve" y="533.434" clip-path="url(#clipPath2)" font-family="'Helvetica Neue'" stroke="none">192.168.178.69</text>
    </g>
    <g fill="rgb(204,255,204)" text-rendering="geometricPrecision" shape-rendering="geometricPrecision" transform="matrix(1,0,0,1,558,-126)" stroke="rgb(204,255,204)">
      <rect x="6" y="342" clip-path="url(#clipPath2)" width="107" rx="4" ry="4" height="45" stroke="none"/>
    </g>
    <g text-rendering="geometricPrecision" stroke-miterlimit="1.45" shape-rendering="geometricPrecision" transform="matrix(1,0,0,1,558,-126)" stroke-linecap="butt">
      <rect x="6" y="342" clip-path="url(#clipPath2)" fill="none" width="107" rx="4" ry="4" height="45"/>
      <text x="39.73" xml:space="preserve" y="368.934" clip-path="url(#clipPath2)" font-family="'Helvetica Neue'" stroke="none">horizon</text>
      <text x="18.256" xml:space="preserve" y="383.434" clip-path="url(#clipPath2)" font-family="'Helvetica Neue'" stroke="none">192.168.178.xx</text>
    </g>
    <g fill="rgb(204,255,204)" text-rendering="geometricPrecision" shape-rendering="geometricPrecision" transform="matrix(1,0,0,1,558,-126)" stroke="rgb(204,255,204)">
      <rect x="6" y="272" clip-path="url(#clipPath2)" width="107" rx="4" ry="4" height="45" stroke="none"/>
    </g>
    <g text-rendering="geometricPrecision" stroke-miterlimit="1.45" shape-rendering="geometricPrecision" transform="matrix(1,0,0,1,558,-126)" stroke-linecap="butt">
      <rect x="6" y="272" clip-path="url(#clipPath2)" fill="none" width="107" rx="4" ry="4" height="45"/>
      <text x="42.28" xml:space="preserve" y="298.934" clip-path="url(#clipPath2)" font-family="'Helvetica Neue'" stroke="none">elastic</text>
      <text x="18.256" xml:space="preserve" y="313.434" clip-path="url(#clipPath2)" font-family="'Helvetica Neue'" stroke="none">192.168.178.xx</text>
    </g>
    <g fill="rgb(204,255,204)" text-rendering="geometricPrecision" shape-rendering="geometricPrecision" transform="matrix(1,0,0,1,558,-126)" stroke="rgb(204,255,204)">
      <rect x="6" y="202" clip-path="url(#clipPath2)" width="107" rx="4" ry="4" height="45" stroke="none"/>
    </g>
    <g text-rendering="geometricPrecision" stroke-miterlimit="1.45" shape-rendering="geometricPrecision" transform="matrix(1,0,0,1,558,-126)" stroke-linecap="butt">
      <rect x="6" y="202" clip-path="url(#clipPath2)" fill="none" width="107" rx="4" ry="4" height="45"/>
      <text x="45.052" xml:space="preserve" y="228.934" clip-path="url(#clipPath2)" font-family="'Helvetica Neue'" stroke="none">kafka</text>
      <text x="18.256" xml:space="preserve" y="243.434" clip-path="url(#clipPath2)" font-family="'Helvetica Neue'" stroke="none">192.168.178.xx</text>
      <text x="-168.294" xml:space="preserve" y="451.444" clip-path="url(#clipPath2)" font-family="'Helvetica Neue'" stroke="none">public dynamic</text>
      <text x="-145.95" xml:space="preserve" y="465.424" clip-path="url(#clipPath2)" font-family="'Helvetica Neue'" stroke="none">ip4/ip6</text>
    </g>
    <g fill="silver" text-rendering="geometricPrecision" shape-rendering="geometricPrecision" transform="matrix(1,0,0,1,558,-126)" stroke="silver">
      <rect x="199" y="430" clip-path="url(#clipPath2)" width="107" rx="4" ry="4" height="16" stroke="none"/>
    </g>
    <g text-rendering="geometricPrecision" stroke-miterlimit="1.45" shape-rendering="geometricPrecision" transform="matrix(1,0,0,1,558,-126)" stroke-linecap="butt">
      <rect x="199" y="430" clip-path="url(#clipPath2)" fill="none" width="107" rx="4" ry="4" height="16"/>
      <text x="235.172" xml:space="preserve" y="442.434" clip-path="url(#clipPath2)" font-family="'Helvetica Neue'" stroke="none">switch</text>
    </g>
    <g fill="silver" text-rendering="geometricPrecision" shape-rendering="geometricPrecision" transform="matrix(1,0,0,1,558,-126)" stroke="silver">
      <rect x="503" y="430" clip-path="url(#clipPath2)" width="107" rx="4" ry="4" height="16" stroke="none"/>
    </g>
    <g text-rendering="geometricPrecision" stroke-miterlimit="1.45" shape-rendering="geometricPrecision" transform="matrix(1,0,0,1,558,-126)" stroke-linecap="butt">
      <rect x="503" y="430" clip-path="url(#clipPath2)" fill="none" width="107" rx="4" ry="4" height="16"/>
      <text x="539.172" xml:space="preserve" y="442.434" clip-path="url(#clipPath2)" font-family="'Helvetica Neue'" stroke="none">switch</text>
    </g>
    <g fill="silver" text-rendering="geometricPrecision" shape-rendering="geometricPrecision" transform="matrix(1,0,0,1,558,-126)" stroke="silver">
      <rect x="-287" y="417" clip-path="url(#clipPath2)" width="107" rx="4" ry="4" height="45" stroke="none"/>
    </g>
    <g text-rendering="geometricPrecision" stroke-miterlimit="1.45" shape-rendering="geometricPrecision" transform="matrix(1,0,0,1,558,-126)" stroke-linecap="butt">
      <rect x="-287" y="417" clip-path="url(#clipPath2)" fill="none" width="107" rx="4" ry="4" height="45"/>
      <text x="-242.83" xml:space="preserve" y="443.934" clip-path="url(#clipPath2)" font-family="'Helvetica Neue'" stroke="none">ISP</text>
    </g>
    <g fill="silver" text-rendering="geometricPrecision" shape-rendering="geometricPrecision" transform="matrix(1,0,0,1,558,-126)" stroke="silver">
      <rect x="-498" y="277" clip-path="url(#clipPath2)" width="107" rx="4" ry="4" height="45" stroke="none"/>
    </g>
    <g text-rendering="geometricPrecision" stroke-miterlimit="1.45" shape-rendering="geometricPrecision" transform="matrix(1,0,0,1,558,-126)" stroke-linecap="butt">
      <rect x="-498" y="277" clip-path="url(#clipPath2)" fill="none" width="107" rx="4" ry="4" height="45"/>
      <text x="-480.398" xml:space="preserve" y="303.934" clip-path="url(#clipPath2)" font-family="'Helvetica Neue'" stroke="none">Ubuntu Store</text>
    </g>
    <g fill="silver" text-rendering="geometricPrecision" shape-rendering="geometricPrecision" transform="matrix(1,0,0,1,558,-126)" stroke="silver">
      <rect x="-498" y="347" clip-path="url(#clipPath2)" width="107" rx="4" ry="4" height="45" stroke="none"/>
    </g>
    <g text-rendering="geometricPrecision" stroke-miterlimit="1.45" shape-rendering="geometricPrecision" transform="matrix(1,0,0,1,558,-126)" stroke-linecap="butt">
      <rect x="-498" y="347" clip-path="url(#clipPath2)" fill="none" width="107" rx="4" ry="4" height="45"/>
      <text x="-469.934" xml:space="preserve" y="373.934" clip-path="url(#clipPath2)" font-family="'Helvetica Neue'" stroke="none">Azure IoT</text>
    </g>
    <g fill="silver" text-rendering="geometricPrecision" shape-rendering="geometricPrecision" transform="matrix(1,0,0,1,558,-126)" stroke="silver">
      <rect x="-498" y="417" clip-path="url(#clipPath2)" width="107" rx="4" ry="4" height="45" stroke="none"/>
    </g>
    <g text-rendering="geometricPrecision" stroke-miterlimit="1.45" shape-rendering="geometricPrecision" transform="matrix(1,0,0,1,558,-126)" stroke-linecap="butt">
      <rect x="-498" y="417" clip-path="url(#clipPath2)" fill="none" width="107" rx="4" ry="4" height="45"/>
      <text x="-476.618" xml:space="preserve" y="443.934" clip-path="url(#clipPath2)" font-family="'Helvetica Neue'" stroke="none">Docker Hub</text>
    </g>
    <g fill="silver" text-rendering="geometricPrecision" shape-rendering="geometricPrecision" transform="matrix(1,0,0,1,558,-126)" stroke="silver">
      <rect x="-498" y="487" clip-path="url(#clipPath2)" width="107" rx="4" ry="4" height="45" stroke="none"/>
    </g>
    <g text-rendering="geometricPrecision" stroke-miterlimit="1.45" shape-rendering="geometricPrecision" transform="matrix(1,0,0,1,558,-126)" stroke-linecap="butt">
      <rect x="-498" y="487" clip-path="url(#clipPath2)" fill="none" width="107" rx="4" ry="4" height="45"/>
      <text x="-477.62" xml:space="preserve" y="513.934" clip-path="url(#clipPath2)" font-family="'Helvetica Neue'" stroke="none">Ubuntu NTP</text>
    </g>
    <g fill="silver" text-rendering="geometricPrecision" shape-rendering="geometricPrecision" transform="matrix(1,0,0,1,558,-126)" stroke="silver">
      <rect x="-498" y="207" clip-path="url(#clipPath2)" width="107" rx="4" ry="4" height="45" stroke="none"/>
    </g>
    <g text-rendering="geometricPrecision" stroke-miterlimit="1.45" shape-rendering="geometricPrecision" transform="matrix(1,0,0,1,558,-126)" stroke-linecap="butt">
      <rect x="-498" y="207" clip-path="url(#clipPath2)" fill="none" width="107" rx="4" ry="4" height="45"/>
      <text x="-482.96" xml:space="preserve" y="233.934" clip-path="url(#clipPath2)" font-family="'Helvetica Neue'" stroke="none">Ubuntu Snaps</text>
      <path fill="none" d="M343.9738 438 L306.0261 438" clip-path="url(#clipPath2)"/>
      <path d="M351.9738 438 C351.9738 440.2091 350.183 442 347.9738 442 C345.7647 442 343.9738 440.2091 343.9738 438 C343.9738 435.7909 345.7647 434 347.9738 434 C350.183 434 351.9738 435.7909 351.9738 438 Z" clip-path="url(#clipPath2)" stroke="none"/>
      <path fill="none" d="M35.9866 439.1089 L198.9741 438.0003" clip-path="url(#clipPath2)"/>
      <path d="M27.9868 439.1634 C27.9718 436.9543 29.7504 435.1513 31.9595 435.1363 C34.1686 435.1212 35.9716 436.8999 35.9866 439.1089 C36.0016 441.318 34.223 443.121 32.0139 443.1361 C29.8048 443.1511 28.0018 441.3725 27.9868 439.1634 Z" clip-path="url(#clipPath2)" stroke="none"/>
      <path fill="none" d="M116.9946 364.9208 L121.0068 365.3419 L128.0877 367.7197 L134.3539 371.4115 L139.9315 376.1953 L149.5245 388.1514 L157.875 401.8125 L165.9911 415.4033 L174.881 427.1484 L179.9312 431.774 L185.5529 435.2725 L191.8721 437.4218 L198.987 437.9977" clip-path="url(#clipPath2)"/>
      <path d="M109.0383 364.0858 C109.2689 361.8887 111.2369 360.2946 113.434 360.5251 C115.631 360.7557 117.2252 362.7237 116.9946 364.9208 C116.764 367.1179 114.796 368.712 112.5989 368.4814 C110.4019 368.2509 108.8077 366.2829 109.0383 364.0858 Z" clip-path="url(#clipPath2)" stroke="none"/>
      <path fill="none" d="M116.9365 295.302 L121.0068 296.1281 L128.0877 300.7275 L134.3539 307.8715 L139.9315 317.1328 L149.5245 340.2998 L157.875 366.8125 L165.9911 393.2549 L174.881 416.2109 L179.9312 425.3141 L185.5529 432.2646 L191.8721 436.6356 L198.987 437.9947" clip-path="url(#clipPath2)"/>
      <path d="M109.0964 293.7107 C109.5358 291.5457 111.6471 290.1469 113.8121 290.5863 C115.9771 291.0257 117.3759 293.137 116.9365 295.302 C116.4971 297.467 114.3858 298.8658 112.2208 298.4264 C110.0558 297.987 108.657 295.8757 109.0964 293.7107 Z" clip-path="url(#clipPath2)" stroke="none"/>
      <path fill="none" d="M116.9737 225.0947 L117.1214 225.1167 L121.0068 226.9142 L128.0877 233.7354 L134.3539 244.3314 L139.9315 258.0703 L149.5245 292.4482 L157.875 331.8125 L165.9911 371.1064 L174.881 405.2734 L179.9312 418.8541 L185.5529 429.2568 L191.8721 435.8495 L195.3327 437.5195 L198.9861 437.9962" clip-path="url(#clipPath2)"/>
      <path d="M109.0612 223.9149 C109.3869 221.73 111.4223 220.2228 113.6073 220.5486 C115.7923 220.8743 117.2995 222.9097 116.9737 225.0947 C116.6479 227.2797 114.6125 228.7869 112.4276 228.4611 C110.2426 228.1353 108.7354 226.0999 109.0612 223.9149 Z" clip-path="url(#clipPath2)" stroke="none"/>
      <path fill="none" d="M116.9946 514.0788 L121.0068 513.6573 L128.0877 511.2744 L134.3539 507.5687 L139.9315 502.7578 L149.5245 490.6904 L157.875 476.8125 L165.9911 462.8643 L174.881 450.5859 L179.9312 445.6168 L185.5529 441.7178 L191.8721 439.1063 L198.987 438.0043" clip-path="url(#clipPath2)"/>
      <path d="M109.0383 514.9146 C108.8075 512.7176 110.4015 510.7494 112.5985 510.5186 C114.7956 510.2878 116.7637 511.8817 116.9946 514.0788 C117.2254 516.2758 115.6314 518.244 113.4343 518.4748 C111.2373 518.7056 109.2691 517.1116 109.0383 514.9146 Z" clip-path="url(#clipPath2)" stroke="none"/>
      <path fill="none" d="M458.9837 438 L502.968 438" clip-path="url(#clipPath2)"/>
      <path d="M450.9837 438 C450.9837 435.7909 452.7745 434 454.9837 434 C457.1928 434 458.9837 435.7909 458.9837 438 C458.9837 440.2091 457.1928 442 454.9837 442 C452.7745 442 450.9837 440.2091 450.9837 438 Z" clip-path="url(#clipPath2)" stroke="none"/>
      <path fill="none" d="M647.9895 438 L609.9797 438" clip-path="url(#clipPath2)"/>
      <path d="M655.9895 438 C655.9895 440.2091 654.1987 442 651.9895 442 C649.7803 442 647.9895 440.2091 647.9895 438 C647.9895 435.7909 649.7803 434 651.9895 434 C654.1987 434 655.9895 435.7909 655.9895 438 Z" clip-path="url(#clipPath2)" stroke="none"/>
      <path fill="none" stroke-dasharray="6,2" d="M-175.9762 439.5 L-79.0089 439.5" clip-path="url(#clipPath2)"/>
      <path stroke-dasharray="6,2" d="M-183.9762 439.5 C-183.9762 437.2909 -182.1853 435.5 -179.9762 435.5 C-177.7671 435.5 -175.9762 437.2909 -175.9762 439.5 C-175.9762 441.7091 -177.7671 443.5 -179.9762 443.5 C-182.1853 443.5 -183.9762 441.7091 -183.9762 439.5 Z" clip-path="url(#clipPath2)" stroke="none"/>
      <path stroke-dasharray="6,2" d="M-71.0089 439.5 C-71.0089 441.7091 -72.7998 443.5 -75.0089 443.5 C-77.2181 443.5 -79.0089 441.7091 -79.0089 439.5 C-79.0089 437.2909 -77.2181 435.5 -75.0089 435.5 C-72.7998 435.5 -71.0089 437.2909 -71.0089 439.5 Z" clip-path="url(#clipPath2)" stroke="none"/>
      <path fill="none" stroke-dasharray="6,2" d="M-390.9674 299.5061 L-378.858 301.0723 L-368.1662 305.5156 L-358.7872 312.4199 L-350.5685 321.375 L-343.3579 331.9707 L-337.0028 343.7969 L-326.25 369.5 L-317.0909 395.2031 L-308.3065 417.625 L-303.6737 426.5801 L-298.6776 433.4844 L-293.1655 437.9277 L-287.0334 439.4877" clip-path="url(#clipPath2)"/>
      <path fill="none" stroke-dasharray="6,2" d="M-390.9674 369.5031 L-378.858 370.2861 L-368.1662 372.5078 L-358.7872 375.96 L-350.5685 380.4375 L-337.0028 391.6484 L-326.25 404.5 L-317.0909 417.3516 L-308.3065 428.5625 L-298.6776 436.4922 L-293.1655 438.7139 L-287.0334 439.4939" clip-path="url(#clipPath2)"/>
      <path fill="none" stroke-dasharray="6,2" d="M-391.0031 439.5 L-286.988 439.5" clip-path="url(#clipPath2)"/>
      <path fill="none" stroke-dasharray="6,2" d="M-390.9674 509.4969 L-378.858 508.7139 L-368.1662 506.4922 L-358.7872 503.04 L-350.5685 498.5625 L-337.0028 487.3516 L-326.25 474.5 L-317.0909 461.6484 L-308.3065 450.4375 L-298.6776 442.5078 L-293.1655 440.2861 L-287.0334 439.5061" clip-path="url(#clipPath2)"/>
      <path fill="none" stroke-dasharray="6,2" d="M-390.9886 229.5023 L-384.2897 230.1024 L-377.9791 231.8584 L-366.5256 238.5234 L-356.502 248.8799 L-347.756 262.3125 L-340.1353 278.2061 L-333.4872 295.9453 L-322.5 334.5 L-305.494 406.6875 L-301.3886 420.1201 L-297.0369 430.4766 L-292.2866 437.1416 L-289.7142 438.8976 L-287.0277 439.4906" clip-path="url(#clipPath2)"/>
    </g>
  </g>
</svg>
